<svg width="18" height="18" viewBox="0 0 18 18" fill="none" xmlns="http://www.w3.org/2000/svg">
<path d="M9 17C13.4183 17 17 13.4183 17 9C17 4.58172 13.4183 1 9 1C4.58172 1 1 4.58172 1 9C1 13.4183 4.58172 17 9 17Z" stroke="#1B1B3C" stroke-width="1.2" stroke-linecap="round" stroke-linejoin="round"/>
<path d="M6.672 6.60006C6.86008 6.0654 7.23132 5.61455 7.71996 5.32737C8.2086 5.04019 8.78311 4.93521 9.34174 5.03103C9.90036 5.12685 10.4071 5.41728 10.7721 5.85089C11.1371 6.28449 11.3368 6.83328 11.336 7.40006C11.336 9.00006 8.936 9.80006 8.936 9.80006" stroke="#1B1B3C" stroke-width="1.2" stroke-linecap="round" stroke-linejoin="round"/>
<path d="M9 13H9.008" stroke="#1B1B3C" stroke-width="1.2" stroke-linecap="round" stroke-linejoin="round"/>
</svg>
