<svg width="160" height="38" viewBox="0 0 160 38" fill="none" xmlns="http://www.w3.org/2000/svg">
<path d="M41.903 35V34.23C42.233 34.802 42.838 35.143 43.619 35.143C45.192 35.143 46.083 33.9 46.083 32.327C46.083 30.787 45.258 29.555 43.652 29.555C42.772 29.555 42.156 29.984 41.903 30.457V27.036H40.88V35H41.903ZM45.027 32.327C45.027 33.471 44.411 34.219 43.465 34.219C42.552 34.219 41.892 33.471 41.892 32.327C41.892 31.183 42.552 30.468 43.465 30.468C44.422 30.468 45.027 31.183 45.027 32.327ZM48.5057 37.211L51.9487 29.709H50.8377L49.2537 33.361L47.6037 29.709H46.4157L48.6927 34.417L47.3727 37.211H48.5057ZM55.3635 33.581C55.3635 34.417 56.0565 35.165 57.1345 35.165C58.0805 35.165 58.6085 34.659 58.8395 34.285C58.8395 34.67 58.8725 34.868 58.8945 35H59.9065C59.8845 34.868 59.8405 34.593 59.8405 34.131V31.48C59.8405 30.446 59.2245 29.544 57.6405 29.544C56.4965 29.544 55.5835 30.248 55.4735 31.26L56.4635 31.491C56.5295 30.875 56.9365 30.424 57.6625 30.424C58.4655 30.424 58.8065 30.853 58.8065 31.37C58.8065 31.557 58.7185 31.722 58.3995 31.766L56.9695 31.975C56.0565 32.107 55.3635 32.635 55.3635 33.581ZM57.2775 34.296C56.7495 34.296 56.4195 33.922 56.4195 33.526C56.4195 33.053 56.7495 32.8 57.1895 32.734L58.8065 32.492V32.734C58.8065 33.889 58.1245 34.296 57.2775 34.296ZM63.6733 30.501C64.5753 30.501 64.9603 31.106 65.0923 31.623L66.0273 31.227C65.8073 30.424 65.0813 29.544 63.6733 29.544C62.1663 29.544 61.0113 30.699 61.0113 32.349C61.0113 33.955 62.1443 35.165 63.6843 35.165C65.0593 35.165 65.8183 34.274 66.0713 33.515L65.1583 33.119C65.0373 33.537 64.6743 34.208 63.6843 34.208C62.8263 34.208 62.0673 33.559 62.0673 32.349C62.0673 31.117 62.8373 30.501 63.6733 30.501ZM69.4966 34.241C68.6166 34.241 67.8466 33.581 67.8466 32.349C67.8466 31.128 68.6166 30.468 69.4966 30.468C70.3766 30.468 71.1466 31.128 71.1466 32.349C71.1466 33.581 70.3766 34.241 69.4966 34.241ZM69.4966 29.544C67.9126 29.544 66.7906 30.743 66.7906 32.349C66.7906 33.966 67.9126 35.165 69.4966 35.165C71.0806 35.165 72.2026 33.966 72.2026 32.349C72.2026 30.743 71.0806 29.544 69.4966 29.544ZM76.3991 29.709L75.0241 33.691L73.8361 29.709H72.7031L74.4411 35H75.5301L76.9051 30.974L78.3131 35H79.3801L81.0961 29.709H80.0071L78.8411 33.691L77.4661 29.709H76.3991ZM82.7043 31.81C82.7483 31.128 83.2763 30.457 84.1453 30.457C85.0803 30.457 85.5753 31.051 85.5973 31.81H82.7043ZM85.7513 33.185C85.5533 33.779 85.1243 34.252 84.2663 34.252C83.3753 34.252 82.6933 33.592 82.6713 32.646H86.6533C86.6643 32.58 86.6753 32.448 86.6753 32.316C86.6753 30.666 85.7623 29.544 84.1343 29.544C82.8033 29.544 81.6043 30.677 81.6043 32.338C81.6043 34.131 82.8473 35.165 84.2663 35.165C85.4983 35.165 86.3453 34.428 86.6423 33.493L85.7513 33.185ZM89.0182 35V34.23C89.3482 34.802 89.9532 35.143 90.7342 35.143C92.3072 35.143 93.1982 33.9 93.1982 32.327C93.1982 30.787 92.3732 29.555 90.7672 29.555C89.8872 29.555 89.2712 29.984 89.0182 30.457V27.036H87.9952V35H89.0182ZM92.1422 32.327C92.1422 33.471 91.5262 34.219 90.5802 34.219C89.6672 34.219 89.0072 33.471 89.0072 32.327C89.0072 31.183 89.6672 30.468 90.5802 30.468C91.5372 30.468 92.1422 31.183 92.1422 32.327ZM94.0207 33.625C94.1087 34.23 94.7247 35.165 96.1767 35.165C97.4857 35.165 98.1127 34.274 98.1127 33.526C98.1127 32.745 97.6067 32.162 96.6497 31.953L95.7917 31.766C95.3847 31.678 95.1867 31.447 95.1867 31.128C95.1867 30.765 95.5387 30.424 96.0667 30.424C96.9027 30.424 97.1227 31.029 97.1667 31.304L98.0797 30.963C97.9697 30.49 97.5187 29.544 96.0667 29.544C95.0327 29.544 94.1857 30.314 94.1857 31.216C94.1857 31.964 94.6807 32.525 95.5057 32.701L96.4077 32.899C96.8477 32.998 97.0897 33.251 97.0897 33.581C97.0897 33.955 96.7707 34.285 96.1877 34.285C95.4397 34.285 95.0217 33.845 94.9557 33.295L94.0207 33.625Z" fill="#0A0959" fill-opacity="0.75"/>
<path d="M40.792 14.212C40.792 19.14 44.51 22.33 48.91 22.33C50.362 22.33 51.77 21.978 52.958 21.318L54.872 23.43L57.16 21.494L55.246 19.404C56.346 18.062 57.006 16.302 57.006 14.212C57.006 9.262 53.288 6.072 48.91 6.072C44.51 6.072 40.792 9.262 40.792 14.212ZM44.4 14.19C44.4 10.934 46.732 9.46 48.91 9.46C51.066 9.46 53.398 10.934 53.398 14.19C53.398 15.202 53.178 16.016 52.804 16.698L50.516 14.19L48.206 16.126L50.494 18.634C49.966 18.81 49.438 18.898 48.91 18.898C46.732 18.898 44.4 17.446 44.4 14.19ZM66.2176 22H69.4296C69.4076 21.824 69.3196 21.032 69.3196 20.042V11.066H65.9756V17.292C65.9756 18.392 65.2716 19.162 64.1496 19.162C62.9616 19.162 62.3896 18.326 62.3896 17.27V11.066H59.0456V17.974C59.0456 20.306 60.5416 22.242 63.2036 22.242C64.3036 22.242 65.5576 21.846 66.1296 20.9C66.1296 21.186 66.1736 21.802 66.2176 22ZM75.6051 22V11.066H72.2611V22H75.6051ZM71.9751 7.722C71.9751 8.8 72.8551 9.68 73.9111 9.68C75.0111 9.68 75.8911 8.8 75.8911 7.722C75.8911 6.644 75.0111 5.764 73.9111 5.764C72.8551 5.764 71.9751 6.644 71.9751 7.722ZM83.5725 13.816C84.8705 13.816 85.5305 14.608 85.7725 15.444L88.7645 14.542C88.2805 12.584 86.5205 10.736 83.5065 10.736C80.2945 10.736 77.7425 13.134 77.7425 16.544C77.7425 19.932 80.3605 22.33 83.6165 22.33C86.5425 22.33 88.3465 20.438 88.8305 18.524L85.8825 17.622C85.6405 18.436 84.9145 19.25 83.6165 19.25C82.2305 19.25 81.0645 18.282 81.0645 16.544C81.0645 14.784 82.1865 13.816 83.5725 13.816ZM101.867 11.066H97.5326L94.2106 14.74V6.072H90.8666V22H94.2106V19.316L95.2886 18.15L97.8626 22H101.955L97.5986 15.664L101.867 11.066ZM115.292 17.38L111.53 6.402H107.702L113.422 22H117.008L122.706 6.402H119.01L115.292 17.38ZM127.748 22V11.066H124.404V22H127.748ZM124.118 7.722C124.118 8.8 124.998 9.68 126.054 9.68C127.154 9.68 128.034 8.8 128.034 7.722C128.034 6.644 127.154 5.764 126.054 5.764C124.998 5.764 124.118 6.644 124.118 7.722ZM133.207 15.224C133.273 14.41 133.977 13.376 135.385 13.376C136.969 13.376 137.541 14.388 137.585 15.224H133.207ZM137.827 18.062C137.519 18.92 136.837 19.492 135.627 19.492C134.329 19.492 133.207 18.612 133.141 17.38H140.753C140.775 17.314 140.819 16.808 140.819 16.346C140.819 12.826 138.729 10.736 135.341 10.736C132.503 10.736 129.885 12.98 129.885 16.5C129.885 20.174 132.569 22.33 135.583 22.33C138.355 22.33 140.093 20.746 140.621 18.854L137.827 18.062ZM148.977 11.066L146.821 17.534L144.995 11.066H141.519L144.951 22H148.339L150.671 14.938L153.047 22H156.369L159.757 11.066H156.479L154.653 17.556L152.519 11.066H148.977Z" fill="#0A0959"/>
<circle cx="16" cy="19" r="11.5" stroke="url(#paint0_linear)" stroke-width="9"/>
<defs>
<linearGradient id="paint0_linear" x1="16" y1="3" x2="16" y2="35" gradientUnits="userSpaceOnUse">
<stop stop-color="#AF59E6"/>
<stop offset="1" stop-color="#DE2582"/>
</linearGradient>
</defs>
</svg>
