<svg width="18" height="18" viewBox="0 0 18 18" fill="none" xmlns="http://www.w3.org/2000/svg">
<path d="M3.13336 8.46667V1" stroke="#1B1B3C" stroke-opacity="0.45" stroke-width="1.5" stroke-linecap="round" stroke-linejoin="round"/>
<path d="M3.13336 17V14.8667" stroke="#1B1B3C" stroke-opacity="0.45" stroke-width="1.5" stroke-linecap="round" stroke-linejoin="round"/>
<path d="M9 2.6V1" stroke="#1B1B3C" stroke-opacity="0.45" stroke-width="1.5" stroke-linecap="round" stroke-linejoin="round"/>
<path d="M9 17V9" stroke="#1B1B3C" stroke-opacity="0.45" stroke-width="1.5" stroke-linecap="round" stroke-linejoin="round"/>
<path fill-rule="evenodd" clip-rule="evenodd" d="M3.13333 10.6C4.31147 10.6 5.26667 11.5552 5.26667 12.7333C5.26667 13.9115 4.31147 14.8667 3.13333 14.8667C1.9552 14.8667 1 13.9115 1 12.7333C1 11.5552 1.9552 10.6 3.13333 10.6V10.6Z" stroke="#1B1B3C" stroke-opacity="0.45" stroke-width="1.5" stroke-linecap="round" stroke-linejoin="round"/>
<path d="M14.8666 8.46667V1" stroke="#1B1B3C" stroke-opacity="0.45" stroke-width="1.5" stroke-linecap="round" stroke-linejoin="round"/>
<path d="M14.8666 17V14.8667" stroke="#1B1B3C" stroke-opacity="0.45" stroke-width="1.5" stroke-linecap="round" stroke-linejoin="round"/>
<path fill-rule="evenodd" clip-rule="evenodd" d="M14.8667 10.6C16.0448 10.6 17 11.5552 17 12.7333C17 13.9115 16.0448 14.8667 14.8667 14.8667C13.6885 14.8667 12.7333 13.9115 12.7333 12.7333C12.7333 11.5552 13.6885 10.6 14.8667 10.6V10.6Z" stroke="#1B1B3C" stroke-opacity="0.45" stroke-width="1.5" stroke-linecap="round" stroke-linejoin="round"/>
<path fill-rule="evenodd" clip-rule="evenodd" d="M8.99997 4.73333C10.1781 4.73333 11.1333 5.68853 11.1333 6.86667C11.1333 8.0448 10.1781 9 8.99997 9C7.82184 9 6.86664 8.0448 6.86664 6.86667C6.86664 5.68853 7.82184 4.73333 8.99997 4.73333V4.73333Z" stroke="#1B1B3C" stroke-opacity="0.45" stroke-width="1.5" stroke-linecap="round" stroke-linejoin="round"/>
</svg>
