<svg width="19" height="24" viewBox="0 0 19 24" fill="none" xmlns="http://www.w3.org/2000/svg">
<path d="M6.86623 14.9324V17.1322" stroke="#1B1B3C" stroke-opacity="0.45" stroke-width="1.5" stroke-linecap="round" stroke-linejoin="round"/>
<path fill-rule="evenodd" clip-rule="evenodd" d="M16.5117 22.9986L17.54 16.315C17.7211 15.1372 16.9316 14.0293 15.7592 13.8161L9.79936 12.7325V8.33283C9.79936 7.52287 9.14276 6.86626 8.33279 6.86626V6.86626C7.52283 6.86626 6.86623 7.52287 6.86623 8.33283V13.0246V14.9324H5.39966C4.58969 14.9324 3.93309 15.589 3.93309 16.3989V18.522C3.93309 19.5211 4.27311 20.4904 4.89723 21.2706L6.28079 23L16.5117 22.9986V22.9986Z" stroke="#1B1B3C" stroke-opacity="0.45" stroke-width="1.5" stroke-linecap="round" stroke-linejoin="round"/>
<path d="M4.52098 10.5314C4.14707 9.88459 3.93309 9.1337 3.93309 8.33284C3.93309 5.90295 5.9029 3.93313 8.33279 3.93313C10.7627 3.93313 12.7325 5.90295 12.7325 8.33284C12.7325 9.13415 12.5183 9.88542 12.144 10.5325" stroke="#1B1B3C" stroke-opacity="0.45" stroke-width="1.5" stroke-linecap="round" stroke-linejoin="round"/>
<path d="M1.60885 11.263C1.21723 10.3656 1 9.37457 1 8.33284C1 4.28302 4.28302 1 8.33284 1C12.3827 1 15.6657 4.28302 15.6657 8.33284C15.6657 9.37575 15.448 10.3678 15.0555 11.2661" stroke="#1B1B3C" stroke-opacity="0.45" stroke-width="1.5" stroke-linecap="round" stroke-linejoin="round"/>
</svg>
