<svg width="18" height="18" viewBox="0 0 18 18" fill="none" xmlns="http://www.w3.org/2000/svg">
<path d="M3.1333 8.46667V1" stroke="#DE2582" stroke-width="1.5" stroke-linecap="round" stroke-linejoin="round"/>
<path d="M3.1333 17V14.8667" stroke="#DE2582" stroke-width="1.5" stroke-linecap="round" stroke-linejoin="round"/>
<path d="M9 2.6V1" stroke="#DE2582" stroke-width="1.5" stroke-linecap="round" stroke-linejoin="round"/>
<path d="M9 17V9" stroke="#DE2582" stroke-width="1.5" stroke-linecap="round" stroke-linejoin="round"/>
<path fill-rule="evenodd" clip-rule="evenodd" d="M3.13333 10.6C4.31147 10.6 5.26667 11.5552 5.26667 12.7333C5.26667 13.9115 4.31147 14.8667 3.13333 14.8667C1.9552 14.8667 1 13.9115 1 12.7333C1 11.5552 1.9552 10.6 3.13333 10.6V10.6Z" stroke="#DE2582" stroke-width="1.5" stroke-linecap="round" stroke-linejoin="round"/>
<path d="M14.8667 8.46667V1" stroke="#DE2582" stroke-width="1.5" stroke-linecap="round" stroke-linejoin="round"/>
<path d="M14.8667 17V14.8667" stroke="#DE2582" stroke-width="1.5" stroke-linecap="round" stroke-linejoin="round"/>
<path fill-rule="evenodd" clip-rule="evenodd" d="M14.8667 10.6C16.0449 10.6 17.0001 11.5552 17.0001 12.7333C17.0001 13.9115 16.0449 14.8667 14.8667 14.8667C13.6886 14.8667 12.7334 13.9115 12.7334 12.7333C12.7334 11.5552 13.6886 10.6 14.8667 10.6V10.6Z" stroke="#DE2582" stroke-width="1.5" stroke-linecap="round" stroke-linejoin="round"/>
<path fill-rule="evenodd" clip-rule="evenodd" d="M9.00003 4.73333C10.1782 4.73333 11.1334 5.68853 11.1334 6.86667C11.1334 8.0448 10.1782 9 9.00003 9C7.8219 9 6.8667 8.0448 6.8667 6.86667C6.8667 5.68853 7.8219 4.73333 9.00003 4.73333V4.73333Z" stroke="#DE2582" stroke-width="1.5" stroke-linecap="round" stroke-linejoin="round"/>
</svg>
